<svg xmlns="http://www.w3.org/2000/svg" width="66" height="14" viewBox="0 0 66 14" fill="#fff"><path d="M9.86628,7.58266v5.71055H6.59977V7.96211c0-1.09357-.38427-1.65119-1.23659-1.65119-.98835,0-1.60448.70136-1.60448,1.91844v5.06385H.49219V.38584H3.7587V4.43413A4.04659,4.04659,0,0,1,6.29014,3.5298C8.46717,3.5298,9.86628,5.12465,9.86628,7.58266Z"/><path d="M21.28154,3.80018V13.2831H18.75636l-.27977-.67054a4.49008,4.49008,0,0,1-2.8613.99148,4.83522,4.83522,0,0,1-4.97235-5.0624,4.812,4.812,0,0,1,4.97235-5.02725A4.49984,4.49984,0,0,1,18.513,4.53332l.33418-.73338ZM18.17491,8.54911a2.12311,2.12311,0,1,0-4.24572,0,2.12323,2.12323,0,1,0,4.24572,0Z"/><path d="M29.0101,3.765V6.75418H27.742c-1.15641,0-1.6406.50705-1.6406,1.71668v4.82235H22.83486V3.8103h2.18835l.50971,1.0524A3.16594,3.16594,0,0,1,28.14478,3.765Z"/><path d="M39.968.38584V13.29321H37.551L37.243,12.589a4.38686,4.38686,0,0,1-2.86033,1.0252A4.83767,4.83767,0,0,1,29.4,8.55175a4.82926,4.82926,0,0,1,4.98271-5.05229,4.42791,4.42791,0,0,1,2.35616.65827V.38584ZM36.94229,8.552a2.12326,2.12326,0,1,0-4.24547,0,2.12325,2.12325,0,1,0,4.24547,0Z"/><path d="M51.38353,3.80018V13.2831H48.85835l-.27977-.67054a4.49057,4.49057,0,0,1-2.8613.99148,4.83528,4.83528,0,0,1-4.97259-5.0624,4.81206,4.81206,0,0,1,4.97259-5.02725,4.49911,4.49911,0,0,1,2.89741,1.01893l.33419-.73338ZM48.27666,8.54911a2.123,2.123,0,1,0-4.24548,0,2.12311,2.12311,0,1,0,4.24548,0Z"/><path d="M64.25413,10.4324A1.00613,1.00613,0,0,1,63.155,9.34364V6.75418h2.30006V3.8103H63.07267V1.08455l-.671.00425-2.5129,2.67611v6.139a3.12,3.12,0,0,0,3.37172,3.3893h2.24734V10.4324Z"/><path d="M59.11209,3.765V6.75418H57.844c-1.15641,0-1.64084.50705-1.64084,1.71668v4.82235H52.93685V3.8103H55.1252l.50947,1.0524A3.16642,3.16642,0,0,1,58.24677,3.765Z"/></svg>
