<svg xmlns="http://www.w3.org/2000/svg" viewBox="0 0 200.99 30.35"><defs><style>.cls-1{fill:#fff;fill-rule:evenodd;}</style></defs><title>logo</title><g id="Layer_2" data-name="Layer 2"><g id="Vrstva_1" data-name="Vrstva 1"><path class="cls-1" d="M168,29.37h9.79l1-.28,1-.28h0l1.54-.7,1.4-.84,1.12-.69,1-.84h0l.7-.7.56-.84.56-1,.42-1,.41-1.12.14-1,.28-1.26V17.76h0l-.14-1.26-.42-1.11-.55-1-1-.7-1.12-.7-1.54-.28-1.68-.28-2.1-.14h0v-.84l-2.1,1h0l-2.09.42-1.82.56-1.54.84-1.26.84-1.12,1.11-.7,1.26-.42,1.26-.14,1.4h0l.14,1.82h0l2.52-1.12h0L170.64,19h0l.14-1.12.28-1,.42-1,.7-.7.84-.7,1-.56,1.26-.28,1.25-.28h0L176,16.22l-1,3.64h0l-.42,1.82h0l-.28,1-1,2.66h0l-.42,1.12-.28.41-.42.42h0l-.56.28-.7.28-.84.14-1,.14h0l-.42.7-.7.56ZM172.6,28h0l1.12-.84.84-.83.56-.84.56-.84.42-.84.41-.84.56-2.1,1.26-5h0l.42-1.4.42-1.12h1.68l1.12.28,1,.28.84.56.56.7.56.84.14,1,.14,1.26h0V19.3l-.14,1.12-.28,1.12-.42,1-.28,1-.56.84-.42.84-.56.7h0l-.56.56-.7.41-.7.42-.84.28-1.68.28-2,.14Z"/><path class="cls-1" d="M150.64,23.92h0l.14,1.26.28,1.26.42,1,.7.84.7.7,1,.42,1,.42h2.23l1.12-.28,1-.28,1.12-.42,1-.56,1-.56.84-.84.84-.83h0l.7-.84.56-.84.56-1,.41-1.12.42-1,.14-1.12L167,19V17.9h0l-.14-1.4-.28-1.11-.42-1-.55-.84-.7-.7-1-.42-1-.28L161.69,12h-.84l-1,.14-1,.28-.84.42-1,.28-.84.56-.84.56-.83.7h0l-.84.84-.7,1-.7,1-.56,1.12-.42,1.26-.42,1.26-.14,1.26-.14,1.26ZM160,13.29h0l1,.14.84.28.7.42.7.7.42.7.42,1,.28,1.12v1.26h0l-.14,2-.42,2-.56,1.68-.84,1.4L161.27,27l-1.12.84-.56.28-.7.14-.56.14-.7.14h0l-1-.14-.84-.28-.7-.42-.55-.56L154,26.3l-.42-1-.14-1-.14-1.26h0l.14-2.1.42-2,.7-1.68.83-1.39,1-1.12,1.12-.84,1.26-.42.7-.14.56-.14Z"/><path class="cls-1" d="M133.58,23.92h0v1.26l.27,1.26.56,1,.56.84.84.7.84.42,1,.42h2.24l1.12-.28,1-.28,1.12-.42,1-.56,1-.56,1-.84.84-.83h0l.56-.84.7-.84.42-1,.42-1.12.42-1,.28-1.12L149.8,19V17.9h0V16.5l-.28-1.11-.42-1-.7-.84-.7-.7-1-.42-1-.28L144.62,12h-1l-1,.14-.84.28-1,.42-1,.28-.84.56-.84.56-.7.7h0l-1,.84-.7,1-.7,1-.56,1.12-.42,1.26-.28,1.26-.27,1.26v1.26ZM143,13.29h0l.84.14.83.28.7.42.7.7.56.7.28,1,.28,1.12v1.26h0l-.14,2-.42,2L146,24.48l-.84,1.4-1,1.11-1.12.84-.7.28-.56.14-.7.14-.7.14h0l-.84-.14-.84-.28-.84-.42-.56-.56-.56-.83-.28-1-.28-1-.14-1.26h0l.14-2.1.42-2,.7-1.68.84-1.39,1-1.12,1.12-.84,1.26-.42.7-.14.7-.14Z"/><polygon class="cls-1" points="113.57 29.93 113.57 29.93 114.69 29.65 115.81 29.09 115.81 29.09 117.49 26.3 119.03 24.06 124.62 15.53 123.64 29.93 123.64 29.93 124.62 29.65 125.6 29.09 125.6 29.09 127.14 27.14 128.54 25.18 131.9 20.84 131.9 20.84 133.85 18.04 134.69 16.64 135.25 15.39 135.81 14.27 136.09 13.29 136.37 12.31 136.37 11.47 136.37 11.47 136.23 10.63 136.09 9.93 135.67 9.23 135.11 8.53 132.88 10.21 132.88 10.21 133.29 10.91 133.57 11.61 133.85 12.31 133.85 13.01 133.85 13.01 133.72 14.41 133.29 15.8 132.74 17.34 131.76 18.88 130.64 20.56 129.38 22.52 126.02 26.57 126.02 26.57 126.44 19.44 127.14 11.89 125.32 12.73 125.32 12.73 120.85 19.58 116.37 26.02 116.37 26.02 118.05 13.29 119.31 12.17 116.79 12.17 116.79 12.17 115.11 12.17 113.71 12.45 112.45 12.87 111.75 13.15 111.2 13.57 111.2 13.57 110.22 14.55 109.38 15.66 108.96 16.78 108.82 18.04 108.82 18.04 108.82 18.74 108.96 19.3 109.52 20.7 109.52 20.7 111.75 19.3 111.75 19.3 111.2 17.62 111.06 16.78 111.06 16.09 111.06 16.09 111.06 15.39 111.2 14.97 111.62 14.55 112.03 14.13 112.59 13.85 113.29 13.71 114.27 13.57 115.25 13.43 115.67 13.43 115.67 13.43 114.69 21.68 113.57 29.93 113.57 29.93 113.57 29.93"/><polygon class="cls-1" points="47.28 29.65 47.28 29.65 48.95 29.51 50.07 29.37 50.07 29.37 51.47 29.51 55.11 29.79 56.09 29.93 56.09 29.93 58.6 30.07 58.6 30.07 60 29.93 61.12 29.93 61.96 29.65 62.52 29.37 64.9 24.48 64.9 24.48 64.9 24.2 64.9 24.2 64.9 23.78 64.48 23.22 63.22 25.32 63.22 25.32 62.8 26.16 62.24 26.71 61.68 27.14 60.98 27.41 60.28 27.55 59.44 27.69 57.35 27.69 52.31 27.69 52.31 27.69 53.15 27 53.85 26.16 54.27 25.32 54.69 24.48 55.25 22.8 55.81 20.98 56.65 17.2 56.65 17.2 57.21 15.66 57.77 14.69 58.05 14.27 58.47 13.99 58.88 13.85 59.3 13.71 59.3 13.71 60.42 13.85 61.68 14.13 62.94 12.31 62.94 12.31 61.96 12.03 60.98 11.89 60.98 11.89 60.42 12.03 59.72 12.17 59.02 12.45 58.47 12.87 57.07 13.99 55.53 15.53 55.53 15.53 54.97 16.36 54.55 17.34 54.13 18.46 53.71 19.86 52.87 23.78 52.87 23.78 52.45 25.32 52.03 26.57 51.47 27.27 51.19 27.55 50.77 27.69 50.77 27.69 48.81 27.83 47.28 29.65 47.28 29.65 47.28 29.65"/><polygon class="cls-1" points="31.47 29.65 31.47 29.65 33.15 29.51 34.27 29.37 34.27 29.37 35.67 29.51 39.3 29.79 40.28 29.93 40.28 29.93 42.8 30.07 42.8 30.07 44.2 29.93 45.32 29.93 46.16 29.65 46.72 29.37 49.09 24.48 49.09 24.48 49.09 24.2 49.09 24.2 49.09 23.78 48.67 23.22 47.42 25.32 47.42 25.32 47 26.16 46.44 26.71 45.88 27.14 45.18 27.41 44.48 27.55 43.64 27.69 41.54 27.69 36.51 27.69 36.51 27.69 37.34 27 38.04 26.16 38.46 25.32 38.88 24.48 39.44 22.8 40 20.98 40.84 17.2 40.84 17.2 41.4 15.66 41.96 14.69 42.24 14.27 42.66 13.99 43.08 13.85 43.5 13.71 43.5 13.71 44.62 13.85 45.88 14.13 47.14 12.31 47.14 12.31 46.16 12.03 45.18 11.89 45.18 11.89 44.62 12.03 43.92 12.17 43.22 12.45 42.66 12.87 41.26 13.99 39.72 15.53 39.72 15.53 39.16 16.36 38.74 17.34 38.32 18.46 37.91 19.86 37.06 23.78 37.06 23.78 36.65 25.32 36.23 26.57 35.67 27.27 35.39 27.55 34.97 27.69 34.97 27.69 33.01 27.83 31.47 29.65 31.47 29.65 31.47 29.65"/><polygon class="cls-1" points="17.34 29.37 29.51 29.79 30.07 29.79 30.07 29.79 30.49 29.65 30.49 29.65 32.17 28.67 33.43 27.55 33.85 27.14 34.13 26.57 34.27 26.02 34.41 25.46 34.41 25.46 34.41 24.9 32.03 25.74 32.03 25.74 32.17 26.86 32.17 26.86 32.03 27.41 31.89 27.69 31.75 27.83 31.19 27.97 30.35 27.97 21.26 27.97 21.26 27.97 22.1 27.27 22.94 26.43 23.5 25.74 23.92 25.04 24.48 23.78 24.9 22.52 25.18 21.4 25.18 21.4 26.43 21.26 29.79 20.98 30.91 20.14 27.83 20.14 27.83 20.14 26.71 20.14 25.46 20 27.27 13.43 30.49 13.43 30.49 13.43 31.05 13.43 31.47 13.57 31.89 13.85 32.17 14.27 32.87 15.39 32.87 15.39 33.99 14.41 34.97 13.57 34.97 13.57 34.41 12.87 33.99 12.59 33.71 12.45 33.71 12.45 27.55 12.45 27.55 11.89 25.6 12.45 25.6 12.45 25.6 12.45 23.64 12.59 21.96 12.87 20.42 13.57 19.16 14.27 18.18 15.11 17.34 16.09 16.92 17.2 16.78 18.32 16.78 18.32 16.92 19.44 17.34 20.7 17.34 20.7 19.58 19.3 19.58 19.3 19.3 18.04 19.16 16.92 19.16 16.92 19.16 16.23 19.44 15.53 19.86 14.83 20.42 14.41 21.26 13.99 22.1 13.71 23.22 13.57 24.48 13.43 24.76 13.43 23.08 20.14 23.08 20.14 21.82 21.4 22.8 21.4 22.24 23.92 22.24 23.92 21.68 25.74 21.26 26.43 20.98 27 20.42 27.41 19.86 27.83 19.16 28.11 18.32 28.39 17.34 29.37 17.34 29.37 17.34 29.37"/><path class="cls-1" d="M9.37,21.12l2-7.83h.84l.7.14.56.14.56.14.42.28.28.42L15,15l.14.56.14.69h0l-.14,1-.28.84-.42.84-.56.84-.7.56-.84.42-.84.42H9.37ZM0,29.23H0l2,.14H8.53l1.26-.28,1.26-.42,1.12-.42V28H7.55l1.54-5.59h0l1.82-.28,1.82-.42,1.4-.7,1.26-.84,1-1L17.2,18l.42-1.26.14-1.25h0l-.14-.7-.14-.7-.42-.56-.56-.42-.69-.42-1-.14-1-.28H11.61l.14-.56-2,.7h0l-2,.42L6,13.43l-1.39.7L3.36,15l-1,1-.7,1.11-.42,1.12-.14,1.26h0V20.7l.28,1.4h0l2.38-1.26h0L3.5,19.58l-.14-1h0l.14-1,.28-1,.42-.83.56-.7.83-.56,1-.42,1.12-.42L9,13.57H9l-.84,3.07-1.26,5h0L6,24.34,5,28H3.64l-2.24.14L0,29.23Z"/><path class="cls-1" d="M192,14.69V9.51h-1.82V9h4.48v.56h-1.82v5.18Zm3.5,0V9h1.12L198.05,13h0l.28.84h0l.28-1L200,9h1v5.74h-.7V9.79l-1.68,4.9h-.7l-1.67-4.9v4.9Z"/><path class="cls-1" d="M87.56,30.35h0l-1.12-.14h0v-.14h0l.56-.14h1.26l-.14.28h0l-.28.14Zm0-2.24h0L87.42,28h0l.14-.14h0l.14-.14.28-.28.28-.14h.42l-.14.28h0l-.42.14-.14.14-.14.14h0l-.28.14ZM89.38,26h0v-.14h.14V26h-.14Zm-1-1.4h0v-.28h.14v.28Zm1.4-.42h-.14V22.94h0l.28.14.42.28h0l.14.42h0v.42h-.7Zm-1.12-1.68h0l-.28-.14v-.56h0v-.14h.28l.14.28.14.28-.14.28h-.14Zm.56-1.12h0l-.14-.28.14-.14h.14v.28l-.14.14Zm-1-1h0L88,20.14h0l-.14-.56V19h0l.28.14.14.28h0l.28.14h0l.28.28V20l-.14.28h0l-.42.14Zm-1.12-2.94h0L87,17.2h0l-.14-.56v-.42h0l.28.14.14.14h0v.84h0l-.14.14Zm1.12-1.26h0L88,16h0v-.7h.28v.42h0l.14.41h0l-.14.14Zm.42-2.09h0L88.4,14l-.14-.28h0l.42-1.4.14-.14h.28v.56h0l-.14.14h0l-.14,1h0V14l-.14.14Zm2.1-.28h0l-.14-.28h.55l-.14.28h-.27ZM92.87,13h0l-.14-.28v-.14l.14-.14h.84l.14.14h0v.28h0l-1,.14Zm7.42,1h0l-.7-1h-.28l-.14.14h0l-.14.56h0l-.42-.14h0l.14-.7-.14-.7h0L98.33,12h-.14l-.28.28h0l-.28,1.12h0l-.14.28h-.28v-.14l-.14-.14h0l-.14-.56-.28-.28h0l-.14-.14h0l-.14.14-.28.14h0l-.28.14h-.28l-.28-.14v-.14h0v-.7h0v-.28L95,11.47l-.28-.28h0l-.56-.84h0l-.28-.28V9.93h0l.28-.14h.42l.14.28.42.28h0l.28.14H96V9.93l.42-.42h.56l.14.28v.28l.14.42.14.42h0v.14h0l-.42.28h-.42v.14l-.14.14V12h0l.42.14.28-.14.14-.14h0l.56-.28.28-.42h0v-.28l.14-.28.28-.14.28.14h0l.28,1h0l.56.7h0l.14.14h.84l.28.14h0v.56h0l-.14.42-.14.28-.28.14ZM97.77,5.32h0l-.42-.84h0l.14-.14.28.14h0l.14.84h-.14ZM94.83,3.78h0V3.5h.28v.14h0l-.28.14Zm1,2.09h0L95.67,5h0l.14-.42L96,4.2h0l.14-.14.14-.14.28.42h0v.14h0l-.14.28L96.23,5h0L96,5.73h0l-.14.14Zm-.42,1.54h0l-.28-.28V7h.28l.14.28h0l-.14.14ZM94,8.81h0l-.42-.28V8.11h0L93.71,8,94,7.83h0l.42.28.14.28-.14.28h0L94,8.81Zm-.28-1.54h0l-.42-.14h-.14V6.71l.14-.28h.42l.28.14.14.42h0L94,7.13h0l-.28.14Zm-4.47-4h0l-.14-.14V2.94l.14-.28h0l.28-.14h.28v.42h0l-.28.28Zm-5.6,5.87h0L83.5,9h0V8.39h.42v.7h-.28Zm1.68-.42h0l-.42-.28-.14-.14V8.11l.14-.42H85V7.27l-.14-.14L84.48,7h0l-.42.28-.42.14h-.28V7.27l-.14-.14h0l-.28-.42V6.15l.14-.28h0l.42-.14h0l.14-.28L83.78,5h0l.14-.28h.14l.14.14h0l.14.42.14.13h.28L85,5.32,85.18,5h.42l.28,1.39h0l.14.14h0L85.88,7l-.28.42h0l-.14.28h0L85.6,8v.42h0l-.28.28Zm6.57.7h0l-1-.56h0l-.28-.14-.14-.14V8.25L90.64,8l.28-.28h0l-.14-1.54h0L90.22,6h0l-.14.14h0l-.28.42h0l-.28.14h-.14l-.14.14h0l-.14.56L89,8h0l-.42-.14-.14-.28-.14-.7h0l-.14-.14h0l-.84-.14h0L87,6.29V6h0l.28-.69.42-.7h0l.56-.14h0l.28-.42.28-.28H89l.42.28v.28l-.14.28h0l-.7.28L88,5h0l-.14.83h0l.28.14.56.14h0l.84-.42h0l.28-.28.42-.13h0l.14.13.28.14h1V6l-.14.42h0v.14h0l.28.28h0l.42.14.14.14.14.14h0l-.7.42h0l-.28.14L91.33,8v.56h.28l.42.28h0l.14.14v.42h-.28Zm-.7,2.38h0l-.41-.28-.42-.28-.84-.42h-.28l-.42.14h-.28l-.14-.14h0l-.7.14h0l-1.12.56h-.7v-.7l.28-.14h.42l.28-.28h0l.14-.28h0l.14-.28.28-.28h0l.14.14.14.14.28.7h.42l.28-.14.28-.14.42.14h.28l.14-.14h0l.14-.42.14-.28h0l.42.14.42.14h0l.27.14h0v.42h0l.42.14h0v1.12h0l-.42.14Zm-6.71,4.33h0l-1-.13h0l-.7-.42L82.24,15h0l-.14-.14h0l-.28-.7h0l-.14-.56.28-.42h0l.28-.14h0v-.42l.14-.14.42.7h0l.84.7h0l.28.14h0l.42.14.28.42h0l.28.7v.42l-.28.28h0v.13h-.14ZM78.89,9.65h-.14V9.51h0l.14-.14H79v.28h-.14Zm1,3.64h0l-.14-.14h0v-1h0L80,12h.14l.27.42h0v.42h0l-.13.28-.42.14Zm1.81-2.52h0l-.14-.14.14-.14.28-.14h0v.28h.14l-.14.14h-.28Zm2.8,2.66h-.14l-.42-.7-.28-.56h0l-.14-.42-.14-.28h0l-.14-.42.14-.14h.14l.14-.28h.28l.28.28h0v1h0l-.14.28h0l.14.42.14.14h.42l.14.28h0v.28h-.14l-.28.14ZM78.33,4.06h0V3.78l.14-.28h.42l.14.14v.42h-.7Zm-.56.84h0l-.14-.14V4.62l.14-.14h.14v.28l-.14.14Zm-1-.56h0l-.14-.28V3.92h0l.28-.14.14-.14.14.28h0l-.14.14-.14.14h0l-.14.14ZM73.57,7.41h0l-.14-.14h0L73.71,7h0v.28h0l-.14.14Zm8.39,1h0l-.14-.14h0l-.14-.56-.28-.42-.28-.14L80.56,7h-1v.14l.14.28h0v.28l-.28.14h0L79.17,8h0V6.71h.28l.28-.42.14-.14L80.15,6h0l.27-.56L80.56,5h0l.14-.14h.14l.42.28h.42l.28.27h0v1.4h0l.14.56.28.7h0v.14h0L82,8.39Zm-4.19-.7h0l-.28-.14h0v-.7h0l.56-.7h0l.14-.28.28-.14h.14l.28.14.28.28v.42h0l-.28-.14h0l-.56.14-.14.14L78.05,7v.56h0l-.28.14Zm-2.1.56h0V8.11h0l.14-.56L76,7.27h.14l.28.14.28.42h0l.14.14h0l-1,.14h0l-.14.14Zm1.12,3.22h0l-.42-.14-.14-.14v-.56h0l.28-.56.28-.56h.28l.14.28.14.14-.14.7h0l-.28.14v.42h0v.14l-.14.14Zm-1.54.42h0l-.42-.42h-.28l-.14-.14-.14-.28h0l.14-.42.14-.14.56.28h0l.42.56h0v.42h0l-.28.14ZM74.13,13h0L74,12.87l-.14-.14v-.28h0l.14-.28.14-.14.42.56h0v.28h0l-.42.14Zm-2.24.14h0L71.61,13h-.14v-.28l.14-.28h0l.14-.56.56.14h0l.14.42h0l.28.28.14.14-.14.14h0l-.84.14Zm-2.1-.42h0l-.14-.42V12l.56-.7h0l.14-.14h.56l.28-.14h.28l.14.28h0v.28h-.14l-.56.14-.42.28h0l-.14.28-.14.42h-.42Zm7.14-9.65h0l-.14-.14V2.8h0l.14-.14h0l.14.42h-.14ZM99.59,30.35h0l-.28-.14h0l-.14-.14h-.56v.14h-.14l-.28-.28h0v-.56l-.14-.14-.28-.14h-.42l-.42.14-.42.14h0l-.42-.14-.28.14h0l-.28-.14-.28-.14H93.71l-.14-.42h0l-.42-.28L93,28.25l-.56.14h0l-1.53.14h0l-.28.14H89l-.14.14h0l-.14.14h0l-1.4-.14-.84.14h-.28l-.14.14h0v.42l.14.42h0v.14h0l-.56.14H85l-.28-.28h-.14l-.14-.14H84.2l-.14.14H83.5l-.14-.14h-.84l-.14.14h-.14L82,29.79h-.14l-.42-.28h-.28L81,29.37h-.69l-.14.14h0l-.28.14h-.28l-.28.42h-.42l-.28-.14h0l-.14-.14h-2l-.56.14h-.14l-.14.28h-.56l-.56-.14h0l-.28-.14H71.61l-.28-.42-.42-.42h0L70.49,29l-.14-.28h0l-.42.14-.14.14h0l-.41.42h0L68,29.23h0v-.42l.14-.28.14-.14.42-.14h0l.14-.56h0l.42-.28h.41l.28-.28.14-.14.42-.14h0l1.4.14h0l.42-.14h.28l.28.28.56.28h0l.56.14h0l.56-.14.28-.14h.28l.28-.69h0l-.28-.14L75,26.3h0l-.14-.56h0v-.42L75,25l.7.14h0l.14.28v.14l.28.28.28.14h.56l.7.28h0l.28.28h0l.14.27h0l.28.14h.14l.14-.14h0l.14-.69h0l.42.14.42.28h.28l.14-.14V26.3h0l-.14-.14h0l-.42-.28h0L79,25.74v-.42h.14l.28-.14L80,25h0l1-.56h0l.28.14h0l.14.56.14.28.28.14h0l.28-.14h0l.14-.42.14-.14h.7l.42.14.42.42h0l.28.42.14.14h.56l.28.42h0l.56.14h0l.14-.42.14-.28h0l.14-.28.14-.28h0V22.38h0l-.14-.28V22h0L86,21.82v-.14h0l-.42-1.12-.14-1.12h0l-.14-.14h0l-.14-.42L85,18.6h0l-.14-.28V18h0l-.28-.14-.14-.14h0l-.42-.14h0l-.28-.14h-.14l-.28-.28h0l-.7-.42L82,16.5h0v-.14h-.14l-.28-.14h0l-.14-.41h0l-.28-.28h0L81,15.25l-.28-.42-.55-.42H80l-.14-.14h-.14l-.14-.14h-.28l-.28.14h0l-.28.14-.14.14h-.42l-.28-.14h0L77.77,14l-.14-.14h0v-.28h0l.84-.28h0l.7-.84h0l.14-.14v-.7h0l-.14-.14h0l-.28.14h0l-.14.28h0v.42h0l-.14.14h0l-.14.14-.14.14-.28-.14h-.56l-.14.14-.14.14h0V13h0l-.56.14v.42h0l.28.7h0l.42.14.28.42h0l.14.56.56.56h0v.27l-.14.42h-.7l-.14.14-.14.14h-.14l-.14.7h0l-.14.28h0l-.28.28-.42.14-.28.14-.42-.14h0v-.14h0L74.83,18h-.14l-.28.14h-.14V17.9h0l-.56-.42h0v-.84h0l-.28-.28h0l-.28-.14L73,16.08h0v-.27l.14-.14.42-.28h.7l.28-.28h0l-.14-.28-.14-.28-.56-.14h0l-.28-.14H73l-.28.14-.14.28h-.14v.14h0l-.28.14-.14.28h0l-.42.42h0l-.14.14-.14.14-.42-.14h0l-.14-.14v-.28h-.28l-.28.14h0l-.28.42h-.42l-.13-.14h0l-.14-.28-.14-.14h0l-.28-.28V15l.28-.28h0l.41-.42.56-.28h0l.14-.28h0l-.14-.14-.14-.14h-.28l-1.11.14h0l-.7-.42h0l-.28-.28-.14-.28h-.7l-.14-1.4h0l.14-.14h0l.14-.14.14-.14.42.14h.42l.42-.14h0l-.14-.28L68,10.21l-.28-.14h0l-.28-.28.14-.14.28-.28h0L68,9h0l.14-.28h.42l.28.14h0l.42.42h0l.27.28.28.14.28.14h0l.14-.56h0L70.35,9l.14-.14h.56l.28.14h0l.28.7h.14L72,9.51h.42l.28.42h.7l.28-.14L74,9.65h0l.28-.42h0V8.81l-.42-.28h0l-.42-.84H73l-.14.42h0l-.28.28H72l-.14-.14-.14-.14h0l-.28-.42-.42-.28h-.7L69.93,7h0V6.57h0V6.43h0V6h0l.28-.28.42-.14h.84l.28-.14h0L72,5.18h0l.14-.28.28-.14h.84l.14.14h0l.14.28.28.41h0l.42.56.42.28h.42V6l.14-.28h0l.42-.14.14-.27h0V4.9l-.14-.28-.42-.42h0l-.14-.42L75,3.64l-.14-.14-.28-.14h0l.14-.28L75,2.94h0V2.52l.28-.14H76l.42-1h0l.28-.14h.56l.28-.14h0l.56-.56h.42l.14.14h0l.14.14.14.14h0l.28.42h0l.14.7h0l.14.28H80l.28-.28h.27l.56.84h.14l.14-.14h0V2.24h0L81,1h0L80.84.7V.28h.42l.84.84h0L82.24,1h0l.14-.56L82.8,0h.28l.42,1h0l-.28.42h0l-.14.28h0v.56h0l.28.28.14.14.14.14h0l.28-.56h1.26l.14.14h0l.14.56.14.28h0l.14-.14h0l.14-.14V2.8h0L85.6,2l-.14-.56h0L85.32.7h0l.14-.14h.84l.28-.14h1.26L88,.7l.14.42h0l.14.14h0l.42.14H89l.28-.14h0l.14-.42.14-.56h.28l.28.14h.28V.14h0L90.64,0h.28l.13.14h0l.14.28.14.28H92l.42.28h0l.14.42h0l-.42.7-.28.28v.28h0l.28.28h0l1.12.14h0l.14-.14h0l.42-.7.42-.56h.84l.42-.7h1.12l.28.14.14.14v.56h0V2h0l.14.14.14.14V2.8h0v.28l.14.14h.28l.28-.42h0l.14-.28.28-.14.42-.14h.42l.56.14h0l.56.56h0l.28.42v.28l-.14.42h-.28v.28h0l.28.14h.14l.14.14h0l.56.14.13.14v.42h0l-.13.27h0v.56l-.14.14H100l-.42-.14h-.28v.14l-.14.42h0L99,7h-.14l-.56.14h0l-.56.14h0L97.35,7h-.42l-.14.28.14.28.14.28.14.14h0l.42.28.42.42h0l.28.28h0l.14.14h0L98.89,9h0l.42-.28.28-.14.28.14h.84l.28.56.14.28.28.42h0v.42l-.14.56h0l.14.28.13.14h.84l.28.14.14.28h0l.28.14.42.14h0l.14.14h0l.28.56h0v.42h0l-.14.28h0l-.28.28h0l-1.12.14h0v.28h0l.42.42h0l.56.14h0l.42.56h0l.14.14h0V16l-.14.13h0v.42h0l-.42.42h0v.7h0l-.14.14h0l-.28.28-.28.28h0l-.14.14h-.28l-.14-.14-.28-.14h0l-.14-.14h0l-.41-.42h0l-.56-.14-.28-.14-.14-.28V16.5h0v-.14h0l-.56-.69h-.42l-.28.14h0l-.14.41h0l-.28.28-.56.28h-.42l-.28-.14-.14-.14h0v-.42h0l-.28-.41-.14-.28h0l-.28-.56h0L96.37,14h0l-.28-.14L96,14l-.28.28h0l-.84.14h0l-.14,1v1h0l-.28.14-.14.28h0l-.56.14h-.14l-.28-.14L93,16.64l-.28-.28h-.42l-.42-1.11h0l-.14-.14L91.61,15h0l-1,.14h0l-.7-.28h-.28l-.14.14v.14h0l.14.14h0l.42.28.14.28.14.41.14.42h0l-.14.14v.14h-.14l-.28.14h0l-.42-.28h0l-.28.14-.42.14-.14.14-.14.28h0l.14.7.28.56h0l.7,1.26.28.56.28.84h0l.28,1h0l.83,1.68h0l.28.42h0l-.14.7h0l-.28.56V26l.28.42h0l1-.14h0l.42-.28h0l.14-.14h.28l.14.14h0l.28.14H94l.14-.14.28-.14h0l.28-.42h0l.42-.28h0l.42-.14h0l.14-.14h0l.7.7h0l.14.28.42.28h0v.42h0l-.28.13h-.14l-.42.14H96v.7h0l.42.42h.84l.28-.14h0l.28.14h0l.28-.14.28-.14h0v-.28l-.28-.28v-.28h0l.42-.14h0l.84-.27h0V26.3h0l.28-.28h.7l.42.28h0l.28.28h0l.28.55.27.56h0l.56-.14.56-.28h.84l.42.14h0l.14.28h0v.42l.14.14h.28l1.26.14h0l.42.14.42.42h0l.14.28h0l-.28.56h0l-.28.28H104.9l-.28-.14h0l-.14-.14-.14-.14h-.56l-.28.14-.14.14h-2.09l-.56-.14h0l-.14-.28h-.14v-.14h-.14l-.14.84h0l-.56.14ZM99,26h0l-.42-.14h0l-.14-.14.14-.14h.56l.14.14-.14.28H99ZM75.11,13.85H75v-.28h.28v.28h-.14ZM92.73,9.37h0l-.14-.14.14-.14H93v.14l-.14.14h-.14Zm-21-5.87h0v-1h0l.14-.28V2h.56l.7.42.42.28.56.14h0l.14.14v.28H73.15l-.42.14h-.42l-.56.14Zm2.38-2h0l-.28-.14h0l-.42-.14L73.29,1h0l.28-.14L73.71.7l.7-.14h0l.42.14.28.28L75,1.26h0l-.42.28h-.42Z"/></g></g></svg>