<svg xmlns="http://www.w3.org/2000/svg" viewBox="0 0 151.3 26.52"><defs><style>.cls-1{fill:gray;}</style></defs><title>mastercard</title><g id="Layer_2" data-name="Layer 2"><g id="Vrstva_1" data-name="Vrstva 1"><path class="cls-1" d="M41.65,21.48v-.43h.17V21h-.43v.08h.17v.43Zm.85,0V21h-.13l-.16.35L42.06,21h-.13v.51H42v-.39l.15.34h.09l.15-.34v.39Zm23.23-3.75V12.19a3.28,3.28,0,0,0-3.47-3.5,3.42,3.42,0,0,0-3.1,1.57,3.21,3.21,0,0,0-2.91-1.57A2.92,2.92,0,0,0,53.67,10V8.91H51.75v8.82h1.93V12.84a2.06,2.06,0,0,1,2.16-2.34c1.28,0,1.92.83,1.92,2.32v4.91H59.7V12.84a2.08,2.08,0,0,1,2.16-2.34c1.31,0,1.94.83,1.94,2.32v4.91ZM94.41,8.91H91.27V6.23H89.33V8.91H87.54v1.75h1.79v4c0,2,.8,3.26,3.07,3.26a4.55,4.55,0,0,0,2.4-.68l-.56-1.64a3.55,3.55,0,0,1-1.7.49c-1,0-1.27-.59-1.27-1.47v-4h3.14Zm16.37-.22A2.62,2.62,0,0,0,108.45,10V8.91h-1.9v8.82h1.92v-5c0-1.45.63-2.26,1.88-2.26a3.06,3.06,0,0,1,1.2.22l.59-1.81a4,4,0,0,0-1.36-.24ZM86,9.61a6.57,6.57,0,0,0-3.6-.92c-2.23,0-3.67,1.07-3.67,2.82,0,1.44,1.07,2.33,3,2.6l.9.13c1.05.15,1.55.43,1.55.93,0,.68-.7,1.07-2,1.07a4.71,4.71,0,0,1-2.94-.93l-.9,1.5A6.39,6.39,0,0,0,82.23,18c2.55,0,4-1.2,4-2.88s-1.16-2.36-3.08-2.64l-.9-.13c-.83-.11-1.5-.27-1.5-.86s.63-1,1.68-1a5.68,5.68,0,0,1,2.75.76Zm51.41-.92A2.62,2.62,0,0,0,135.11,10V8.91h-1.9v8.82h1.92v-5c0-1.45.63-2.26,1.88-2.26a3,3,0,0,1,1.2.22l.59-1.81a4,4,0,0,0-1.36-.24Zm-24.73,4.63A4.46,4.46,0,0,0,117.42,18a4.59,4.59,0,0,0,3.17-1.05l-.92-1.55a3.86,3.86,0,0,1-2.31.79,2.63,2.63,0,0,1-2.65-2.82,2.63,2.63,0,0,1,2.65-2.82,3.86,3.86,0,0,1,2.31.79l.92-1.55a4.59,4.59,0,0,0-3.17-1.05,4.46,4.46,0,0,0-4.71,4.63Zm18,0V8.91h-1.92V10A3.37,3.37,0,0,0,126,8.69a4.42,4.42,0,0,0-4.41,4.63A4.42,4.42,0,0,0,126,18a3.37,3.37,0,0,0,2.79-1.29v1.07h1.92Zm-7.15,0a2.67,2.67,0,1,1,5.34,0,2.67,2.67,0,1,1-5.34,0ZM100.39,8.69A4.3,4.3,0,0,0,96,13.32,4.35,4.35,0,0,0,100.52,18a5.37,5.37,0,0,0,3.61-1.23l-.94-1.43a4.22,4.22,0,0,1-2.56.93A2.45,2.45,0,0,1,98,14.06h6.55c0-.24,0-.48,0-.74,0-2.75-1.72-4.63-4.19-4.63Zm0,1.71a2.19,2.19,0,0,1,2.23,2.14H98a2.26,2.26,0,0,1,2.34-2.14Zm48.14,2.92V5.37h-1.92V10a3.35,3.35,0,0,0-2.78-1.29,4.42,4.42,0,0,0-4.41,4.63A4.42,4.42,0,0,0,143.79,18a3.35,3.35,0,0,0,2.78-1.29v1.07h1.92Zm2.24,3.6a.59.59,0,0,1,.23,0,.71.71,0,0,1,.18.12.57.57,0,0,1,.12.18.54.54,0,0,1,0,.22.52.52,0,0,1,0,.21.57.57,0,0,1-.12.18A.71.71,0,0,1,151,18a.59.59,0,0,1-.23.05.54.54,0,0,1-.22-.05.55.55,0,0,1-.3-.3.54.54,0,0,1-.05-.21.54.54,0,0,1,.05-.22.55.55,0,0,1,.3-.3A.54.54,0,0,1,150.73,16.92Zm0,1a.47.47,0,0,0,.17,0,.5.5,0,0,0,.14-.1.3.3,0,0,0,.09-.13.35.35,0,0,0,0-.17.33.33,0,0,0,0-.17.34.34,0,0,0-.09-.14.5.5,0,0,0-.14-.1.47.47,0,0,0-.17,0,.51.51,0,0,0-.17,0,.71.71,0,0,0-.14.1.34.34,0,0,0-.09.14.47.47,0,0,0,0,.17.51.51,0,0,0,0,.17.3.3,0,0,0,.09.13.71.71,0,0,0,.14.1A.51.51,0,0,0,150.73,17.91Zm0-.7a.23.23,0,0,1,.15.05.14.14,0,0,1,.06.12.16.16,0,0,1,0,.11.33.33,0,0,1-.12.05l.17.19h-.13l-.16-.19h-.05v.19h-.11v-.52Zm-.13.1v.14h.13l.07,0a.07.07,0,0,0,0-.1l-.07,0Zm-9.29-4a2.67,2.67,0,1,1,5.33,0,2.67,2.67,0,1,1-5.33,0Zm-64.8,0V8.91H74.63V10a3.36,3.36,0,0,0-2.79-1.29,4.42,4.42,0,0,0-4.41,4.63A4.42,4.42,0,0,0,71.84,18a3.36,3.36,0,0,0,2.79-1.29v1.07h1.92Zm-7.14,0a2.67,2.67,0,1,1,5.33,0,2.67,2.67,0,1,1-5.33,0ZM20.28,24l.32.27A13.26,13.26,0,1,1,13.26,0,13.18,13.18,0,0,1,20.6,2.22l-.32.26a14.29,14.29,0,0,0,0,21.56ZM29.66,0a13.24,13.24,0,0,0-7.35,2.22l.32.26a14.27,14.27,0,0,1,0,21.56l-.32.27A13.26,13.26,0,1,0,29.66,0Zm-8.2,2.84c-.17.13-.34.27-.5.42a13.24,13.24,0,0,0,0,20l.5.41.5-.41a13.26,13.26,0,0,0,0-20c-.16-.15-.33-.29-.5-.42"/></g></g></svg>