<svg xmlns="http://www.w3.org/2000/svg" viewBox="0 0 85.85 27.72"><defs><style>.cls-1{fill:gray;}</style></defs><title>visa</title><g id="Layer_2" data-name="Layer 2"><g id="Vrstva_1" data-name="Vrstva 1"><g id="layer1"><g id="g10267"><path class="cls-1" d="M44.4,8.86c0,3.86,3.44,6,6.07,7.3s3.61,2.16,3.6,3.33c0,1.8-2.16,2.6-4.16,2.63a14.45,14.45,0,0,1-7.12-1.7L41.54,26.3a21,21,0,0,0,7.71,1.42c7.28,0,12-3.59,12.08-9.17,0-7.08-9.79-7.47-9.72-10.63,0-1,.93-2,2.94-2.24a12.88,12.88,0,0,1,6.84,1.2l1.22-5.69A18.56,18.56,0,0,0,56.12,0C49.26,0,44.44,3.65,44.4,8.86M74.32.49a3.16,3.16,0,0,0-2.95,2L61,27.3h7.28l1.44-4h8.9l.84,4h6.42L80.25.49H74.32m1,7.24,2.1,10.07H71.69L75.34,7.73M35.57.49,29.83,27.3h6.94L42.51.49H35.57M25.31.49,18.09,18.74,15.17,3.22A3.23,3.23,0,0,0,12,.49H.16L0,1.27A28.4,28.4,0,0,1,6.84,3.55,2.93,2.93,0,0,1,8.49,5.91L14,27.3h7.33L32.59.49H25.31"/></g></g></g></g></svg>