<svg xmlns="http://www.w3.org/2000/svg" width="18" height="18" viewBox="0 0 18 18">
  <defs>
    <style>
      .cls-1 {
        fill: #ec1c24;
      }
    </style>
  </defs>
  <title>error_input</title>
  <g id="Vrstva_2" data-name="Vrstva 2">
    <g id="Vrstva_4" data-name="Vrstva 4">
      <path class="cls-1" d="M9,1.161A7.839,7.839,0,1,1,1.161,9,7.84,7.84,0,0,1,9,1.161M9,0a9,9,0,1,0,9,9A9,9,0,0,0,9,0ZM8.583,4.355h.834a.435.435,0,0,1,.435.453l-.254,6.1a.436.436,0,0,1-.435.418H8.837a.437.437,0,0,1-.435-.418l-.254-6.1a.435.435,0,0,1,.435-.453ZM9,12.048a1.017,1.017,0,1,0,1.016,1.017A1.016,1.016,0,0,0,9,12.048Z"/>
    </g>
  </g>
</svg>
