<?xml version="1.0" encoding="UTF-8"?><svg id="a" xmlns="http://www.w3.org/2000/svg" viewBox="0 0 200.99 30.35"><g><path d="M77,2.94c.37,.28,.97,.07,1.1-.37-.35-.79-2.38,.02-1.1,.37Z" fill="#fff"/><path d="M105.62,27.03c-.28-.43-.89-.55-1.37-.56-.1-1.81-1.67-1.75-2.71-.62,.41-1.38-1.71-2.19-2.28-1.02-.73-.08-2.18-.68-2.27,.76-1.42-.9,.37,.02,.2-1.01-1.2-1.19-1.11-1.36-2.45-.12-.43,.1-1.13-.55-1.8-.18,1.45-1.45-1.19-1.79-1.38-3,.08-1.21-3.38-5.43-.49-4.65,1.1-.33-.05-1.34-.37-1.83,.18-.32,.75,.06,.98,.12,.15-.01,.92-.22,.98,0,.4,.92,.64,1.18,1.59,1.59,1.71,.13,.24-2.46,1.83-2.32,.5-.73,.7-.04,.73,.49,.64,1.64,1.24,2.41,2.45,.73,.6-.13,.96,.73,.86,1.22,.07,.36,.57,.42,.86,.49,.3,.25,.84,1.02,1.22,.61,.37-.32,.74-.69,.61-1.22,.77-.58,.58-1.98-.49-2.08-1.36-1.09,3.28-.51-.37-2.81-.37-.01-.88,.12-.98-.37,.36-.72-.2-1.33-.49-1.96-.3-.02-.72,.07-.98-.12-.47,.23-.97,.77-1.35,.12-2.14-1.94-.77-1.09,.86-1.47,.23-.47,.22-.98,.86-.61,.1,0,1.22,.07,1.22-.12-.12-.4,.34-.91,0-1.22-.32-.12-1.05-.17-.98-.61,1.18-.45-.76-2.14-1.59-1.47-1.24,1.29-.68,.64-1.22-.49,.24-.87-.81-.74-1.35-.73-.16,.52-.6,.71-1.1,.61-.49,.73-.82,1.5-1.83,1.1-.82-.63,1.63-1.96-.73-1.96-.06-.49-.84-.97-.86-.24-.24,.05-.49-.17-.73-.12-.01,1.22-1.23,1.28-1.47,.12-.68-.07-1.41,.15-2.08,.12-.46,.61,.81,1.81,.12,2.32-.13-1.1-1.43-1.21-1.71-.37-.63-.4-.6-1.07-.12-1.59-.39-1.33-.82-.85-1.22,.12-.17-.17-1.15-1.27-1.1-.49,.01,.47,.97,1.87,.24,2.08-.63-1.64-1.52,.59-1.71-1.35-.46-1.01-1.05-.72-1.71-.12-.67-.21-.93,.49-1.1,.98-.82,.21-1.61-.66-2.33,.08-1.09-.9-1.46-.29-1.34,.9,.28-.12,.75-.09,1.03-.18-.08,.59,.45,.98,.87,1.29-.49,.15-1.04-.2-1.54,.11-.09,.26-.35,.52-.61,.61-1.49-.49-1.99,1.8-.37,1.59,.5,.31,1.16,1.5,1.63,.48,.28,.95,2.26,.74,.45,1.72-.79,.16-.74-1.45-1.89-1.03,.09-.01,.17-.02,.26-.04-.63,.08-1.5-.04-1.76,.71-.96-.95-1.06-1.09-1.75,.1-.28,.3,.62,.54,.61,.98-1.44,.22-1.61-.16-1.35,1.59,.94-.06,1.36,1.28,2.57,.73,1.58,.29-1.52,1.08-.49,1.71,.58,1.11,.75-.02,1.47,0-.09,.32,.25,.43,.49,.49,.76-.81,1.7-2.2,2.69-.98,.54,.79-1.82,.26-1.1,1.22,.51,.11,.53,.69,.49,1.1,.05,.06,.59,.36,.49,.49,0,.27,.68-.14,.98,.12,.46,.69,1.57-.39,1.47-1.1,.27-.11,.62-.35,.98-.24,.43-.66-.49-1-.52-1.63,1.78-1.16,2.87,.14,3.82,1.51,.9,.53,2.33,.83,2.69,1.83,.63,1.51,2.6,8.01-.61,6.48-.57-.97-1.57-1.41-2.2-.37-1.13-.26-2.15,.57-3.22,.89-.56,.74-2.05-1.14-3.01-.08-1.76,1.81-.94,5.27,1.12,2.27,.16,.15,.35,.24,.58,.28l-.48,.39c.79-.29,2.11,.02,2.82,.17,1.15-1.37,3.07,.36,4.52-.24,.29,.33,1.25,.59,1.47,.12,.15,.41,2.98,.66,3.05-.97,.39,.39,1.08,.38,1.47-.01-.46,1.69,2.54,1.74,2.67,.25,1.06,.3,1.92,.21,3,.02-.02,.29,.51,1.18,.69,.87,1.92,.75,1.19-.87,1.59-.52,.67,.61,1.89,.24,2.79,.57,.79-.21,2.98,.38,2.59-1.06Zm-15.9-11.25c-.31,.29-.53-.41-.12-.55-.03,.12,.08,.43,.12,.55Zm2.5,8.76h0Zm-2.5-1.3c0-.06,0-.19,0-.25,.18-.07,.18,.32,0,.25Zm-.98-6.36l-.12,.12c-.17-.29-.27-.76-.24-1.1,.46,.06,.37,.66,.37,.98Zm-8.2-9.08c.22,.09-.13,.29-.09,.5-.02-.29-.49-.47-.15-.74,.08,.09,.14,.18,.24,.24Zm-1.19,3.65c.11-.18,.15-.38,.12-.59,.28,.34,.38,1.11-.28,.75,.05-.05,.12-.1,.15-.17Zm8.16-.2c-.05-.27,.44-.25,.61-.24,.24-.17,.37-.52,.51-.76,.05,.09,.08,.19,.16,.27-.58,.15-.6,.81-.67,1.22-.45,.03-.71,.04-.61-.49Zm3.18,13.21c-.11,.02-.14-.02-.12-.12,.11-.02,.14,.02,.12,.12Zm-5.14-14.8c-.09-.06-.15-.18-.12-.28,.12,.01,.24,.03,.37,0,.02,.21,0,.33-.24,.28Zm5.87,12.47c-.1,.86-.98,1.17-.37-.25,.01,0,.36,.24,.37,.25Zm-1.35-3.06c0,.86-1.05-.28-.86-.73,.31,.18,.56,.51,.86,.73Zm0-5.14c-.43,.36-.54-.5-.33-.78,.13,.07,.27,.1,.41,.08-.01,.09-.1,.63-.08,.7Zm1.96-.12c-.19,.05-.32-.07-.37-.24h.49l-.12,.24Zm.49-2.45c.12,1.36-1.32-.16-1.92-.3,.47-.03,.87-.48,.88-.95,.34,.11,.81,.17,.68,.63,.37,.02,.4,.3,.37,.61Zm1.96,1.47c0,.32-1.45,.32-.86-.25,.17,.04,.96-.14,.86,.25Zm-.61-5.14c-.02-.52,.38-.32,.71-.24-.32,0-.73,.9-.71,.24Zm2.32,5.26c-.68,.14-.46-.65-.49-1.06,.12,.41,.5,.68,.86,.88-.08,.04-.29,.14-.37,.18Zm.93-.06c.08,.08,.21,.1,.32,.12-.1,.05-.14,.16-.19,.25-.02-.06-.06-.35-.14-.37h0Zm3.47-.19v.17c-.18-.09-.38-.1-.57-.06,.1-.31,.34-.27,.57-.11Zm-3.42-2.69c-.37,.09-.47,.51-.83,.55-.11-.4,.51-.63,.83-.55Zm-.86-4.65c.06-.06,.18-.18,.24-.24,.58,.58-.26,.43-.47,.92,.06-.17,.17-.51,.23-.68Zm-.98-.49c.06-.33,.48,.02,0,.12v-.12Zm-1.83,4.77c.25-.05,.34,.08,.12,.24-.18,.02-.31-.14-.12-.24Zm-.98-3.06c-.2,1.13-.08,.85,.73,1.47-2.14,1.16-.28,.72-.24,1.83-2.88-.67-.36-1.73-.81-3.3h.32Zm-2.2-2.32c.04-.16,.21-.33,.37-.37,.75-.08-.27,1.16-.37,.37Zm-.24,.73c.85,.12,.43,.89-.21,.96-.25-.31-.1-.73,.21-.96Zm-3.18,1.1c.38-.1,.43,.17,.46,.47-.25-.21-.65,.13-.75-.14,.14-.02,.25-.21,.29-.33Zm-5.99-.98c.17-1.07,1.31,.42,0,.12v-.12Zm-1.35-.98l.12-.12,.12,.37c-.14,.03-.28-.11-.24-.25Zm-5.5,8.07c-.9,1.89-1.13-1.19,.7-.71-.27,.19-.35,.58-.7,.71Zm3.55,.73c-.64,.5-.84-.84-.26-.59,.11,.13,.33,.4,.26,.59Zm.61,.86c-.22,.03-.28-.03-.24-.24,.22-.03,.28,.03,.24,.24Zm2.81-.49h-.03c-.09-.49-.03-.59,.46-.51l-.43,.51Zm1.1-.12c-.02-.32-.01-.93,.37-.98-.31,.2-.03,1.34-.37,.98Zm4.52,2.2c-.56,.9-1.92-.09-2.45-.73-.62-.8,.54-1.21,.24-2.08,.43,1.23,2.37,1.32,2.2,2.81Zm0-2.08c-.66,.39-.82-.53-1.1-.98-.1-.4,.51-.83,.24-1.34,.65,.39-.17,1.41,.37,1.83,.34-.08,.55,.14,.49,.49Z" fill="#fff"/><path d="M98.52,24.22c.19,.2,.67,.41,.73,0-.1-.18-.63-.18-.73,0Z" fill="#fff"/></g><path d="M20.01,14.27c0,4.62-3.48,7.99-8.17,7.99H7.08v6.09H1V6.3H11.84c4.69,0,8.17,3.34,8.17,7.97Zm-6.25,.01c0-1.57-1.05-2.68-2.65-2.68H7.08v5.35h4.03c1.6,0,2.65-1.11,2.65-2.68Z" fill="#fff"/><path d="M38.41,23.08v5.27H22.09V6.3h16.05v5.25h-10v3.25h9.18v4.98h-9.18v3.3h10.27Z" fill="#fff"/><path d="M56.81,22.79v5.56h-15.35V6.3h6.16V22.79h9.19Z" fill="#fff"/><path d="M74.11,22.79v5.56h-15.35V6.3h6.16V22.79h9.19Z" fill="#fff"/><path d="M136.83,6.3l-6.8,22.05h-5.35l-4.23-10.65-4.15,10.65h-5.35l-6.9-22.05h6.52l3.58,12.71,5.25-12.6h2.1l5.35,12.61,3.51-12.72h6.47Z" fill="#fff"/><path d="M200,17.31c0,6.44-4.73,11.05-11.38,11.05h-8.93V6.3h8.93c6.68,0,11.38,4.56,11.38,11.01Zm-6.23,0c0-3.27-2.18-5.44-5.44-5.44h-2.54v10.93h2.54c3.27,0,5.44-2.23,5.44-5.48Z" fill="#fff"/><path d="M165.58,5.74c-2.75,0-5.2,.74-7.16,2.03,1.39,1.46,2.44,3.23,3.06,5.24,1.03-1.01,2.46-1.61,4.1-1.61,3.36,0,5.79,2.48,5.79,5.93s-2.43,5.93-5.79,5.93h0c-3.3,0-5.74-2.42-5.82-5.76,0-.06,0-.28,0-.34-.04-3.17-1.2-5.9-3.15-7.9-.45-.46-.95-.87-1.48-1.25-.11-.08-.21-.16-.32-.24-1.96-1.3-4.4-2.03-7.15-2.03-7.09,0-12.15,4.84-12.15,11.58s5.06,11.58,12.15,11.58h0c2.75,0,5.18-.73,7.14-2.02-1.39-1.46-2.45-3.22-3.06-5.23-1.02,1.01-2.44,1.6-4.07,1.6h0c-3.36,0-5.82-2.5-5.82-5.93s2.47-5.93,5.82-5.93,5.7,2.4,5.78,5.77c0,.06,0,.27,0,.33,.03,2.04,.51,3.91,1.38,5.51,.36,.66,.78,1.27,1.26,1.84,.17,.19,.35,.38,.53,.56,.54,.55,1.13,1.04,1.78,1.47h.02c1.96,1.31,4.41,2.05,7.17,2.05h0c7.07,0,12.11-4.83,12.11-11.58s-5.04-11.58-12.11-11.58Z" fill="#fff"/></svg>