<?xml version="1.0" standalone="no"?>
<!DOCTYPE svg PUBLIC "-//W3C//DTD SVG 20010904//EN"
 "http://www.w3.org/TR/2001/REC-SVG-20010904/DTD/svg10.dtd">
<svg version="1.0" xmlns="http://www.w3.org/2000/svg"
 width="700.000000pt" height="700.000000pt" viewBox="0 0 700.000000 700.000000"
 preserveAspectRatio="xMidYMid meet">
<metadata>
Created by potrace 1.11, written by Peter Selinger 2001-2013
</metadata>
<g transform="translate(0.000000,700.000000) scale(0.100000,-0.100000)"
fill="#000000" stroke="none">
<path d="M2802 6107 c-30 -31 -82 -124 -82 -146 0 -20 -15 -11 -60 35 -61 62
-89 81 -134 89 -42 8 -40 15 -21 -70 2 -11 22 -72 44 -135 44 -128 49 -194 16
-229 -24 -27 -28 -26 -42 7 -20 44 -71 99 -98 106 -19 5 -35 0 -59 -19 -63
-48 -96 -28 -161 99 -56 110 -103 168 -151 185 l-40 14 -46 -46 c-60 -59 -101
-80 -167 -82 -61 -3 -80 -19 -101 -88 -16 -54 -48 -83 -101 -91 -24 -4 -56
-17 -70 -29 -34 -31 -131 -157 -120 -157 17 0 121 -111 142 -152 35 -69 57
-141 49 -163 -4 -12 -16 -27 -26 -35 -37 -31 -74 -93 -74 -125 0 -43 -21 -59
-68 -52 -29 5 -49 19 -94 67 -31 34 -71 85 -87 113 -45 77 -55 87 -103 101
-70 22 -105 14 -146 -33 -37 -41 -66 -53 -219 -91 -88 -22 -191 -120 -194
-185 -3 -59 2 -74 37 -109 32 -32 40 -35 89 -35 71 1 126 -31 191 -108 27 -32
49 -59 49 -60 0 -1 12 -4 26 -6 27 -5 94 20 119 44 36 35 87 65 105 62 25 -5
55 -50 83 -126 53 -140 4 -245 -114 -248 -80 -3 -88 0 -109 31 -17 25 -47 40
-90 45 -5 1 -26 -4 -45 -11 l-35 -11 -20 50 c-31 75 -85 106 -147 85 -38 -13
-85 -70 -98 -118 -6 -22 -15 -40 -20 -40 -11 0 -61 42 -135 113 -88 85 -158
99 -205 40 -36 -47 -108 -163 -101 -163 24 0 131 -128 131 -157 0 -19 -57 -32
-123 -27 -121 9 -130 6 -147 -56 -10 -36 -6 -185 6 -222 4 -14 13 -16 45 -12
38 6 43 3 87 -44 52 -55 78 -70 167 -99 46 -15 83 -19 159 -17 160 5 176 -23
66 -111 -73 -60 -130 -134 -130 -171 0 -27 86 -144 107 -144 22 0 54 20 88 55
16 17 37 34 45 37 26 10 61 -11 72 -43 10 -30 12 -31 60 -25 62 8 67 11 172
123 100 106 145 132 216 128 92 -6 200 -85 183 -133 -15 -41 -35 -52 -98 -52
-66 0 -119 -19 -135 -50 -8 -14 -2 -28 30 -66 21 -26 37 -51 35 -54 -4 -7 57
-133 108 -222 15 -26 27 -54 27 -62 0 -22 11 -25 50 -17 37 8 123 -11 149 -33
8 -6 42 -11 77 -11 53 0 69 4 105 30 65 46 98 103 112 192 2 12 20 33 40 47
31 21 45 24 91 20 51 -5 56 -3 72 21 16 24 16 28 -1 73 -23 61 -72 143 -147
244 -96 130 -127 214 -97 269 15 29 204 119 248 119 48 0 78 22 86 63 4 17 14
51 22 75 12 33 21 42 39 42 24 0 64 -43 64 -69 -1 -77 -148 -224 -277 -278
-21 -8 -39 -16 -41 -18 -10 -9 23 -106 43 -125 30 -28 60 -28 155 0 90 27 115
27 179 4 68 -24 107 -58 195 -168 139 -174 162 -192 421 -331 181 -97 252
-159 304 -270 67 -142 187 -545 205 -690 12 -92 15 -339 5 -398 -19 -118 -87
-247 -129 -247 -10 0 -51 16 -91 35 -41 19 -79 35 -87 35 -28 0 -75 33 -135
96 -81 86 -124 108 -195 101 -63 -7 -78 -17 -88 -60 -9 -44 -22 -57 -56 -57
-28 0 -78 40 -78 62 0 25 -45 108 -61 113 -11 4 -31 -2 -47 -13 -31 -22 -162
-81 -239 -108 -29 -10 -53 -23 -53 -30 0 -13 42 -58 102 -109 19 -17 40 -40
46 -51 10 -18 8 -23 -15 -33 -23 -11 -33 -8 -82 17 -86 45 -101 48 -101 19 0
-13 -5 -38 -11 -56 -20 -56 -46 -52 -201 28 -78 40 -156 74 -176 75 -28 3 -45
14 -75 47 -22 24 -53 59 -70 77 -50 56 -71 66 -111 52 -37 -12 -56 -46 -49
-89 2 -13 21 -57 43 -96 43 -78 48 -107 26 -158 -25 -59 -49 -72 -135 -71 -63
0 -100 9 -216 47 -122 41 -146 46 -185 39 -25 -4 -54 -7 -65 -5 -11 1 -67 5
-125 8 -100 7 -107 6 -150 -19 -57 -32 -115 -61 -158 -77 -46 -17 -133 -108
-164 -171 -56 -115 -33 -178 64 -178 81 0 139 19 197 66 62 51 104 57 161 23
38 -23 111 -98 138 -141 9 -16 21 -28 27 -28 5 -1 116 -2 245 -4 129 -2 249
-6 265 -9 37 -7 153 -10 180 -3 11 2 49 12 85 21 49 13 108 17 241 17 172 0
178 -1 228 -27 68 -36 100 -29 188 40 75 60 119 75 167 55 17 -6 47 -15 66
-19 19 -4 57 -20 85 -34 61 -33 110 -43 130 -27 24 20 96 19 150 -1 61 -23 75
-24 123 -3 42 19 70 18 93 -2 8 -8 21 -14 27 -14 7 0 21 -9 33 -21 40 -40 174
-22 184 25 2 11 6 37 9 56 8 72 18 90 60 115 54 32 103 36 212 18 105 -17 172
-13 211 13 15 10 37 19 48 20 26 1 145 15 170 20 23 5 130 20 195 29 226 28
368 0 420 -85 23 -37 28 -40 70 -41 25 -1 54 -3 65 -4 11 -2 43 -6 70 -9 28
-4 74 -10 103 -15 94 -15 251 -6 307 16 87 35 132 13 181 -87 l32 -65 65 -1
c52 -1 76 -7 111 -28 43 -25 46 -26 83 -11 48 19 63 43 70 110 4 40 9 52 19
48 8 -3 12 -9 9 -13 -8 -13 63 -66 106 -79 59 -18 169 -14 299 9 184 34 271
29 342 -18 36 -23 44 -24 140 -20 122 6 160 23 183 81 21 53 19 85 -10 123
-31 41 -109 78 -222 105 -48 12 -104 25 -123 30 -54 13 -97 44 -115 83 -25 51
-57 69 -131 69 -51 0 -77 -6 -134 -32 -98 -46 -116 -40 -174 53 -49 78 -113
149 -155 171 -37 18 -78 12 -147 -23 -34 -17 -98 -40 -144 -51 -84 -21 -120
-42 -120 -68 0 -8 9 -32 21 -54 24 -48 17 -62 -46 -90 -55 -24 -222 -40 -277
-26 -30 8 -78 79 -78 116 0 38 28 80 58 87 64 14 93 27 103 46 33 62 -88 210
-194 239 -53 14 -84 0 -156 -69 -74 -73 -126 -94 -216 -91 -136 4 -174 1 -248
-21 -96 -29 -121 -23 -134 29 -12 44 -9 144 5 214 6 30 6 64 0 89 -9 43 -55
142 -87 186 -35 51 -59 108 -119 289 -68 202 -83 236 -179 391 -138 223 -153
318 -62 383 30 21 46 24 137 26 104 1 123 7 142 43 12 23 -3 73 -37 124 -15
23 -31 43 -34 46 -25 21 -69 98 -69 121 0 29 0 29 53 24 28 -3 66 -8 82 -10
17 -2 73 -7 125 -11 52 -3 101 -11 108 -17 20 -16 51 -80 73 -153 11 -36 26
-66 32 -68 54 -14 101 -34 152 -64 46 -28 68 -35 99 -33 52 4 89 23 116 60 18
27 21 46 23 174 3 166 11 186 75 205 23 7 74 29 116 50 59 30 78 35 90 26 17
-12 55 -91 56 -114 0 -27 51 -172 87 -250 43 -94 78 -124 143 -123 59 0 110
29 198 112 81 75 112 90 148 66 34 -22 65 -94 70 -162 6 -71 27 -103 113 -175
31 -26 225 -138 240 -138 27 0 91 42 125 81 45 53 96 158 129 269 53 175 41
218 -85 281 -79 40 -114 75 -124 127 -8 37 19 57 86 67 57 8 121 38 138 65 7
11 13 43 14 71 0 41 -5 59 -29 92 -66 95 -222 187 -316 187 -23 0 -52 7 -65
15 -24 17 -48 88 -57 170 -3 28 -8 61 -10 75 -3 14 -7 40 -10 59 -7 43 -37
101 -65 126 -19 17 -38 20 -125 22 -87 2 -105 -1 -122 -16 -54 -51 -133 -60
-178 -22 -11 9 -46 35 -79 57 -116 78 -187 182 -165 242 8 21 12 22 66 15 67
-9 205 -9 246 0 39 8 47 17 87 87 38 68 59 79 112 57 19 -8 72 -15 120 -16
104 -2 122 9 143 89 20 76 19 143 -2 169 -10 11 -47 31 -82 44 -84 29 -90 40
-69 119 26 97 10 151 -66 221 -82 76 -141 79 -269 13 -51 -26 -106 -63 -124
-83 -30 -33 -35 -35 -58 -25 -13 6 -26 22 -29 34 -61 321 -71 336 -219 343
l-87 3 -16 -31 c-37 -72 -84 -101 -161 -99 l-52 1 -51 -65 c-104 -132 -193
-204 -253 -204 -44 0 -107 70 -107 119 0 9 23 63 50 121 53 112 63 167 33 191
-10 9 -43 14 -95 14 l-80 0 -14 35 c-21 48 -43 70 -72 70 -28 0 -102 -19 -117
-31 -5 -4 -34 -6 -63 -6 -28 1 -53 0 -53 -3 -1 -3 -3 -15 -4 -27 -4 -41 -35
-110 -60 -133 -17 -16 -37 -23 -69 -24 -58 -1 -90 23 -134 98 -41 70 -73 87
-140 74 -26 -4 -52 -6 -59 -4 -7 3 -36 -2 -64 -10 -29 -9 -81 -17 -115 -17
-54 -2 -64 -5 -68 -22 -9 -34 3 -95 36 -195 36 -109 41 -183 16 -219 l-17 -25
-16 40 c-44 112 -65 127 -185 131 l-90 2 -26 -50 -26 -51 -30 28 c-75 72 -83
162 -21 255 l25 37 -22 60 c-37 100 -81 127 -128 79z m1236 -459 c12 -12 22
-28 22 -35 0 -17 -41 -33 -84 -33 -31 0 -34 4 -43 39 -6 21 -8 43 -4 49 17 26
68 17 109 -20z m-2218 -10 c0 -30 -1 -31 -16 -16 -9 9 -14 24 -11 32 11 27 27
17 27 -16z m336 -128 c7 -7 14 -23 14 -35 0 -37 -25 -49 -92 -46 -23 1 -26 4
-23 31 7 53 23 72 56 66 17 -2 37 -10 45 -16z m2814 12 c0 -10 -22 -32 -32
-32 -4 0 -8 9 -8 20 0 13 7 20 20 20 11 0 20 -4 20 -8z m-3125 -42 c7 -22 -4
-47 -34 -74 -25 -23 -30 -20 -35 23 -3 24 2 36 22 51 31 25 39 25 47 0z m2100
-22 c50 -23 34 -48 -85 -138 -116 -88 -150 -125 -150 -165 0 -57 71 -102 138
-86 21 4 77 33 125 63 104 66 145 77 190 51 24 -14 45 -17 84 -13 29 3 62 2
74 -2 18 -7 20 -13 13 -51 -18 -96 -2 -128 98 -194 37 -25 68 -48 68 -51 0 -4
-34 -24 -75 -45 -81 -42 -115 -82 -115 -136 0 -32 3 -35 52 -45 36 -8 98 -63
98 -87 0 -10 -11 -26 -25 -35 -23 -15 -28 -14 -118 30 -159 79 -177 116 -118
246 39 84 42 137 11 203 -29 61 -46 73 -97 68 -45 -4 -144 -137 -188 -251 -15
-39 -28 -70 -29 -70 -2 0 -17 7 -33 15 -31 16 -58 63 -56 98 1 11 -7 38 -18
59 -22 43 -58 64 -128 72 -24 3 -54 12 -67 21 -27 17 -39 68 -30 119 15 80
145 230 258 299 66 40 83 43 123 25z m1243 -39 c28 -51 -12 -192 -79 -277
l-17 -23 -7 23 c-12 36 -14 127 -3 166 17 68 63 145 83 139 5 -2 16 -14 23
-28z m-3208 -76 c0 -10 -5 -25 -10 -33 -9 -13 -11 -13 -20 0 -15 23 -12 38 8
43 9 3 18 5 20 6 1 0 2 -7 2 -16z m3444 -5 c26 -24 35 -59 22 -95 -11 -34 -23
-28 -55 28 -43 76 -23 117 33 67z m-2321 -87 c16 -23 40 -49 53 -58 23 -15 26
-14 49 7 14 13 27 31 31 42 8 27 46 22 77 -10 70 -73 67 -366 -5 -534 -29 -68
-40 -74 -83 -48 -59 37 -63 104 -9 175 17 23 20 34 13 48 -13 23 -51 22 -161
-4 -105 -25 -132 -18 -171 39 -50 74 -53 151 -7 209 56 72 164 183 174 180 6
-2 24 -22 39 -46z m-503 -16 c14 -1 31 -3 37 -3 7 -1 20 -14 30 -28 13 -21 17
-52 19 -148 2 -108 5 -130 33 -204 36 -97 38 -125 11 -152 -29 -29 -47 -25
-60 15 -17 53 -84 135 -133 166 -47 29 -100 41 -198 43 l-60 2 7 -31 c17 -71
-2 -115 -57 -134 l-29 -10 0 109 0 108 33 20 c19 10 65 62 104 113 118 157
144 177 203 152 19 -8 46 -16 60 -18z m-477 -109 c44 -18 67 -46 74 -91 6 -36
5 -37 -18 -29 -13 5 -42 9 -63 9 -34 0 -43 -5 -63 -34 -13 -19 -33 -60 -44
-92 -26 -71 -47 -93 -71 -75 -43 32 -43 90 0 170 26 49 125 156 143 156 5 0
24 -6 42 -14z m2608 -116 c40 -11 66 -53 55 -87 -9 -27 -57 -52 -81 -42 -11 4
-32 10 -47 13 -24 6 -28 11 -28 41 0 48 19 85 44 85 12 0 37 -5 57 -10z
m-3483 -125 c-6 -13 -15 -22 -19 -19 -13 7 -11 28 3 42 18 18 28 4 16 -23z
m3776 19 c12 -12 13 -20 6 -35 -9 -16 -14 -17 -30 -7 -22 14 -33 35 -24 49 8
14 31 11 48 -7z m-3335 -48 c30 -16 91 -80 91 -96 0 -6 -10 -10 -23 -10 -22 0
-115 -22 -149 -35 -14 -6 -16 -2 -12 22 6 35 24 92 36 116 11 21 21 21 57 3z
m3147 -107 c34 -31 32 -82 -2 -114 -38 -35 -68 -32 -100 11 -32 41 -35 99 -7
119 24 18 82 9 109 -16z m-1819 -91 c7 -6 13 -20 13 -33 0 -23 -30 -65 -47
-65 -15 0 -33 47 -33 87 0 33 1 35 27 28 16 -4 34 -11 40 -17z m1586 -111 c-2
-4 -3 -11 -3 -17 0 -5 -9 -10 -19 -10 -22 0 -35 15 -26 30 6 10 52 7 48 -3z
m-2436 -74 c-15 -15 -17 -15 -23 1 -8 21 16 40 30 26 7 -7 4 -16 -7 -27z
m3097 5 c34 -15 63 -80 69 -148 6 -87 -5 -114 -55 -133 -46 -18 -62 -36 -84
-100 -36 -101 54 -74 242 74 45 36 63 58 72 87 14 46 30 55 72 40 35 -12 48
-33 80 -133 49 -149 71 -175 162 -181 132 -9 158 -24 158 -92 0 -51 -78 -182
-108 -182 -4 0 -17 15 -30 34 -12 18 -43 54 -67 79 -57 59 -89 63 -111 12 -7
-19 -14 -44 -14 -55 0 -23 -7 -24 -45 -10 -24 9 -26 14 -20 42 14 62 14 151 0
185 -8 18 -25 38 -39 45 -54 24 -101 -27 -112 -119 -7 -66 -32 -150 -47 -160
-36 -22 -59 -1 -88 83 -42 120 -59 128 -166 84 -41 -17 -82 -28 -93 -25 -24 8
-46 56 -60 135 -17 98 -16 97 -107 193 -120 126 -143 168 -107 198 23 19 43
20 78 2 31 -15 116 -80 127 -96 9 -12 75 -20 104 -13 17 4 28 19 39 54 19 58
69 112 102 112 13 0 34 -5 48 -12z m-3411 -27 c30 -29 24 -87 -19 -187 -21
-49 -39 -93 -39 -99 0 -23 -52 -15 -79 12 -26 25 -28 33 -23 79 3 30 22 86 47
138 40 83 43 87 69 81 14 -3 34 -14 44 -24z m1863 -90 c10 -25 19 -47 20 -49
1 -2 34 7 74 19 55 17 86 20 131 15 77 -8 102 3 134 58 14 25 35 48 46 51 28
9 91 -3 126 -25 93 -56 148 -220 99 -295 -28 -43 -51 -41 -128 10 -145 96
-225 128 -288 114 -19 -5 -77 -8 -128 -8 -90 0 -95 -1 -203 -51 -85 -40 -123
-52 -169 -54 -71 -4 -79 7 -52 67 17 37 80 105 217 232 l40 37 32 -37 c18 -21
40 -58 49 -84z m-1025 -31 c3 -20 4 -25 12 -37 5 -8 -1 -15 -18 -19 -52 -13
-75 21 -33 50 26 18 37 20 39 6z m-1180 -82 c60 -61 70 -130 23 -168 -13 -12
-18 -12 -21 -2 -3 6 -9 12 -15 12 -5 0 -26 12 -46 27 -99 72 -123 110 -97 150
35 53 91 46 156 -19z m1541 14 c23 -23 28 -72 16 -173 -12 -108 -5 -127 71
-179 34 -22 61 -47 61 -55 0 -15 -46 -44 -80 -50 -44 -9 -201 292 -194 373 1
12 2 30 3 41 0 10 11 31 22 46 18 22 27 26 53 21 17 -4 39 -14 48 -24z m-2176
-74 c25 -24 0 -63 -49 -78 -29 -8 -64 -35 -124 -97 -70 -70 -89 -84 -111 -81
-22 2 -29 10 -36 40 -12 49 11 109 67 170 36 40 49 48 92 53 28 4 51 8 52 9
10 9 97 -4 109 -16z m1518 -159 c48 -38 27 -142 -38 -184 -39 -26 -41 -22 -62
94 -7 32 4 78 23 96 20 21 46 19 77 -6z m-1352 -50 c32 -33 58 -66 58 -74 0
-16 -70 -44 -123 -49 -43 -4 -117 21 -112 38 2 6 9 30 15 52 14 57 45 94 78
94 19 0 42 -16 84 -61z m323 27 c36 -48 39 -73 10 -102 -13 -13 -32 -24 -42
-24 -22 0 -53 48 -53 80 0 28 30 80 47 80 6 0 24 -15 38 -34z m2550 -9 c6 -22
2 -84 -9 -132 -13 -62 -39 -153 -46 -165 -13 -21 -38 -4 -56 37 -19 45 -14
140 11 200 32 75 88 109 100 60z m817 -39 c20 -32 -31 -68 -105 -75 l-56 -5
-7 37 c-8 45 2 57 58 65 48 7 98 -3 110 -22z m-1753 -208 c142 -128 179 -171
211 -242 28 -63 16 -108 -39 -147 -25 -18 -34 -19 -91 -10 -155 25 -337 157
-373 272 -25 81 -22 119 23 223 22 52 40 101 40 109 0 9 30 -14 68 -52 37 -38
110 -106 161 -153z m1311 23 c0 -3 -7 -15 -17 -25 -23 -26 -56 -23 -70 7 -11
25 -11 25 38 25 27 0 49 -3 49 -7z m-2787 -23 c-3 -11 -9 -20 -14 -20 -11 0
-11 3 -3 24 9 23 23 20 17 -4z m2277 -306 c12 -31 13 -94 1 -112 -12 -20 -51
47 -52 89 -3 66 -1 71 21 59 12 -6 25 -22 30 -36z m-204 -149 c40 -40 48 -103
22 -169 l-11 -28 -14 27 c-18 34 -43 153 -36 171 7 18 21 18 39 -1z m275 -593
c25 -49 12 -84 -35 -99 -30 -11 -40 -10 -50 0 -20 19 -48 77 -52 106 -9 58
-11 97 -7 109 7 18 124 -76 144 -116z m129 -219 c-1 -5 -6 -18 -13 -31 l-13
-23 -12 25 c-8 19 -8 26 1 30 19 7 37 7 37 -1z m-93 -163 c1 0 7 -9 14 -21 9
-17 7 -25 -12 -45 -12 -13 -28 -24 -35 -24 -16 0 -74 60 -74 77 0 20 40 31 75
22 16 -5 31 -9 32 -9z m216 -224 c38 -40 50 -61 63 -111 9 -38 -24 -64 -78
-59 -23 2 -48 6 -54 8 -7 3 -11 42 -11 109 0 100 0 104 20 99 11 -3 38 -24 60
-46z m-273 -210 c0 -8 -6 -16 -14 -19 -10 -4 -14 0 -13 14 1 21 27 27 27 5z
m168 -257 c-2 -6 -8 -10 -13 -10 -5 0 -11 4 -13 10 -2 6 4 11 13 11 9 0 15 -5
13 -11z m-168 -244 c0 -7 -10 -21 -23 -33 -26 -24 -135 -92 -147 -92 -14 0 4
47 28 75 39 45 142 81 142 50z"/>
<path d="M1276 6020 c-43 -13 -77 -50 -70 -74 26 -80 199 -105 251 -37 16 21
16 62 -1 83 -26 35 -111 48 -180 28z"/>
<path d="M941 5753 c-12 -10 -25 -31 -30 -48 -8 -29 -6 -163 3 -172 2 -2 21 0
42 5 22 6 65 13 97 16 32 3 63 8 68 12 5 3 37 7 72 10 175 14 185 52 33 123
-147 69 -244 87 -285 54z"/>
<path d="M5581 1678 c-32 -12 -25 -25 25 -44 45 -17 46 -17 67 5 22 22 22 22
3 37 -20 14 -59 16 -95 2z"/>
<path d="M3545 930 c-36 -8 -79 -30 -72 -37 3 -3 47 -11 97 -18 118 -16 169
-6 194 36 l18 30 -104 -3 c-57 -1 -116 -5 -133 -8z"/>
</g>
</svg>
